<svg id="Layer_1" data-name="Layer 1" xmlns="http://www.w3.org/2000/svg" viewBox="0 0 230 275"><defs><style>.cls-1{fill:#fff;}.cls-2{fill:#cccbcb;}.cls-3{fill:#838585;}</style></defs><title>Artboard 1 copy 2</title><rect class="cls-1" x="31.5" y="15.25" width="167" height="243.5" rx="16.38" ry="16.38" transform="matrix(1, 0, 0, 1, 0.36, -0.3)"/><path class="cls-2" d="M53.37,46l123.73.32A7.73,7.73,0,0,1,184.82,54l-.38,142.74a7.73,7.73,0,0,1-7.76,7.71L53,204.17a7.73,7.73,0,0,1-7.71-7.75l.37-142.73A7.73,7.73,0,0,1,53.37,46Z"/><rect class="cls-3" x="111.13" y="20.41" width="8.68" height="111.29" transform="translate(39 191.25) rotate(-89.8)"/><polygon class="cls-3" points="59.7 99.5 59.73 90.82 171.03 91.1 170.99 99.78 59.7 99.5"/><polygon class="cls-3" points="59.73 120.23 59.77 111.56 171.06 111.83 171.03 120.51 59.73 120.23"/><polygon class="cls-3" points="59.55 141.6 59.58 132.93 170.87 133.2 170.84 141.88 59.55 141.6"/><polygon class="cls-3" points="59.92 161.94 59.95 153.26 115.59 153.4 115.56 162.08 59.92 161.94"/><path class="cls-2" d="M94.81,35.32a4.34,4.34,0,0,1,.68-8.63l35.4.26a4.34,4.34,0,0,1-.06,8.67l-35.4-.26A3.71,3.71,0,0,1,94.81,35.32Z"/><circle class="cls-2" cx="116.71" cy="232.14" r="9.73" transform="translate(-130.17 313.16) rotate(-81.48)"/></svg>