<svg id="Layer_1" data-name="Layer 1" xmlns="http://www.w3.org/2000/svg" viewBox="0 0 230 275"><defs><style>.cls-1{fill:#f0f8fa;}.cls-2{fill:#a6ddee;}.cls-3{fill:#0ab0d0;}.cls-4{fill:#1d99b7;}</style></defs><title>Artboard 1 copy 3</title><polygon class="cls-1" points="209.23 241.72 29.4 243.09 29.36 193.31 208.72 189.87 209.23 241.72"/><path class="cls-2" d="M29.39,228.63l165.43-1.7A38.19,38.19,0,0,0,209,221.36l-.14-14.81a25.91,25.91,0,0,1-14.71,9.12l-164.8,1.67Z"/><path class="cls-3" d="M199.38,252.26l-164,0a15.79,15.79,0,0,1-15.69-16.1l2-198.4a16.07,16.07,0,0,1,15.91-16l156.74-.08A15.81,15.81,0,0,1,210,37.8l-1.26,151.43a16.06,16.06,0,0,1-16,16l-144.09-1a16.06,16.06,0,0,0-16,16l0,3a15.81,15.81,0,0,0,15.78,16.15l142.9-1v-.07s14.93.1,18.16-13.65l-.06,17.41A10.08,10.08,0,0,1,199.38,252.26Z"/><path class="cls-4" d="M75.46,239.23l-27.1.18a15.81,15.81,0,0,1-15.78-16.15l0-3a16.06,16.06,0,0,1,16-16l26.53.19L73.63,21.76l-36.07,0a16.07,16.07,0,0,0-15.91,16l-2,198.4a15.8,15.8,0,0,0,15.69,16.1H75.57Z"/></svg>