<svg id="Layer_1" data-name="Layer 1" xmlns="http://www.w3.org/2000/svg" viewBox="0 0 230 275"><defs><style>.cls-1{fill:#d8c426;}.cls-2{fill:#fff;}</style></defs><title>Artboard 1 copy</title><path class="cls-1" d="M157.51,11.65l-85.14-.07A74.76,74.76,0,0,1,38.8,50.23l-.14,173.42a74.76,74.76,0,0,1,33.52,38.7l85.14.07a74.76,74.76,0,0,1,33.58-38.65L191,50.35A74.76,74.76,0,0,1,157.51,11.65Z"/><path class="cls-2" d="M165.4,56.45,64.81,56.37l-.13,161.75,100.59.08ZM161.21,185l-92.41-.07L68.87,89l92.41.07Zm.1-124.47,0,24.45-92.41-.08,0-24.45ZM68.79,189l92.41.07,0,25L68.77,214Z"/><polygon class="cls-2" points="114.87 102.19 118.43 113.17 129.97 113.18 120.63 119.96 124.19 130.94 114.85 124.14 105.51 130.92 109.09 119.95 99.75 113.16 111.3 113.16 114.87 102.19"/><polygon class="cls-2" points="114.84 143.07 118.4 154.05 129.94 154.06 120.59 160.84 124.15 171.82 114.82 165.03 105.48 171.8 109.05 160.83 99.72 154.04 111.26 154.05 114.84 143.07"/></svg>