<svg id="Layer_1" data-name="Layer 1" xmlns="http://www.w3.org/2000/svg" viewBox="0 0 230 275"><defs><style>.cls-1{fill:#6d6e70;}.cls-2{fill:#fff;}.cls-3{fill:#e43b2c;}</style></defs><title>Artboard 1</title><polygon class="cls-1" points="100.51 177.34 93.56 260.79 131.4 267.61 133.04 171.2 100.51 177.34"/><rect class="cls-2" x="10.36" y="12.45" width="210" height="164.79" rx="26.66" ry="26.66" transform="translate(-0.56 0.68) rotate(-0.34)"/><path class="cls-3" d="M65,114.59a18.5,18.5,0,0,1-7.65-1.41,15.17,15.17,0,0,1-5.49-4,17.53,17.53,0,0,1-3.33-6,24.06,24.06,0,0,1-1.16-7.37,24.49,24.49,0,0,1,.51-5.25,15.43,15.43,0,0,1,2-4.89,21,21,0,0,1,2.7-3.59,13.45,13.45,0,0,1,3.32-2.55A14.93,14.93,0,0,1,60,78.06a25.15,25.15,0,0,1,5.11-.51,20.2,20.2,0,0,1,7.2,1.15,14.39,14.39,0,0,1,5.46,3.49,15.58,15.58,0,0,1,3.46,5.72,24,24,0,0,1,1.24,7.86,24.62,24.62,0,0,1-.94,7,16.86,16.86,0,0,1-3.07,6A15.15,15.15,0,0,1,73,113,19.1,19.1,0,0,1,65,114.59Zm.26-6.72q4.88,0,7.24-3.24T74.83,96a16,16,0,0,0-.61-4.32A10.53,10.53,0,0,0,72.41,88a8.93,8.93,0,0,0-3.06-2.5A9.31,9.31,0,0,0,65,84.63a10.08,10.08,0,0,0-4.35.93,7.54,7.54,0,0,0-3,2.6,14.37,14.37,0,0,0-.83,1.37,9.17,9.17,0,0,0-.65,1.58,12.28,12.28,0,0,0-.43,2.13,23.29,23.29,0,0,0-.14,3q0,5.67,2.56,8.69A8.61,8.61,0,0,0,65.27,107.88Z"/><path class="cls-3" d="M88,93.84l-.1-12.28a4.61,4.61,0,0,1,.33-1.81,2.94,2.94,0,0,1,1.62-1.4,13.14,13.14,0,0,1,3.74-.9,60.49,60.49,0,0,1,6.72-.34A26,26,0,0,1,108,78a14.91,14.91,0,0,1,5.19,2.64,10.1,10.1,0,0,1,2.94,3.86,11.93,11.93,0,0,1,1,4.61q0,5.78-3.6,8.61T103,100.65c-.91,0-1.66,0-2.26,0l-1.55-.09-1.13-.1a9.94,9.94,0,0,0-1,0,1,1,0,0,0-.79.24,1,1,0,0,0-.2.66c0,.14,0,.64,0,1.5s0,1.81,0,2.86,0,2.07,0,3,0,1.68,0,2.1a2.24,2.24,0,0,1-.88,1.9,5.25,5.25,0,0,1-3.09.7,5.29,5.29,0,0,1-3.29-.68,2.34,2.34,0,0,1-.83-1.86Zm8.13-.27a1.77,1.77,0,0,0,1.19,1.65,11.12,11.12,0,0,0,4.23.51c2.73,0,4.74-.55,6-1.59A5,5,0,0,0,109.47,90a5.07,5.07,0,0,0-2.4-4.71,13,13,0,0,0-6.68-1.36,12.2,12.2,0,0,0-2.23.18,3.21,3.21,0,0,0-1.33.5,1.62,1.62,0,0,0-.63.85,3.82,3.82,0,0,0-.15,1.18Z"/><path class="cls-3" d="M130.12,99a1,1,0,0,0-1,.41,1.74,1.74,0,0,0-.23.92c0,.32,0,.85,0,1.6s0,1.57,0,2.44a1.91,1.91,0,0,0,.67,1.72,3.7,3.7,0,0,0,2,.4h1.52l2.52,0,3,0c1.05,0,2,0,3,0l2.52,0h1.52a2.1,2.1,0,0,1,1.87.71,5.55,5.55,0,0,1,.52,2.83,4.56,4.56,0,0,1-.43,2.34,1.86,1.86,0,0,1-1.7.72h-3.33q-2.59,0-6,0l-3.6,0q-2,0-3.78.06l-3.2.05h-1.91a4.41,4.41,0,0,1-1.32-.15,1.59,1.59,0,0,1-.74-.47,1.51,1.51,0,0,1-.35-.73,4.48,4.48,0,0,1-.09-.89c0-.32,0-1.11,0-2.39s0-2.75,0-4.41,0-3.36,0-5.09,0-3.23,0-4.49,0-2.64-.06-4.14,0-3-.06-4.34,0-2.61-.05-3.7,0-1.84,0-2.25a2.91,2.91,0,0,1,.49-1.84,2.86,2.86,0,0,1,2.22-.65l6.93,0c2.27,0,4.35,0,6.22,0l4.75,0h2.52a2.13,2.13,0,0,1,1.73.67,4.25,4.25,0,0,1,.6,2.62,4,4,0,0,1-.61,2.53,2.6,2.6,0,0,1-2.14.8l-1.13,0c-.61,0-1.36,0-2.26,0s-1.84,0-2.86,0-2,0-2.94,0-1.8,0-2.57,0l-1.62,0A1.53,1.53,0,0,0,129,85.91l0,5.77a2,2,0,0,0,.35,1.31,1.75,1.75,0,0,0,1.39.41l13.54-.11a2.13,2.13,0,0,1,1.71.59,3.68,3.68,0,0,1,.52,2.23,4.16,4.16,0,0,1-.41,2.1,1.75,1.75,0,0,1-1.62.69Z"/><path class="cls-3" d="M155.84,112.88a2.74,2.74,0,0,1-1.95-.66,2.32,2.32,0,0,1-.75-1.78c0-.17,0-.61,0-1.29s0-1.5,0-2.47,0-2,0-3.2,0-2.33,0-3.49,0-2.26,0-3.31,0-1.94,0-2.68c0-1.08,0-2.29-.06-3.62s0-2.58-.05-3.75,0-2.18-.05-3,0-1.35,0-1.52a5.49,5.49,0,0,1,.89-3.41c.61-.81,1.78-1.22,3.53-1.24a6.54,6.54,0,0,1,2.1.27,4.55,4.55,0,0,1,1.45.77A6,6,0,0,1,162,79.67c.32.45.64.94,1,1.46s.64,1.07,1.27,2.06,1.37,2.17,2.2,3.53l2.68,4.33q1.44,2.3,2.72,4.5l1.91,3.23,1.15,2a7.38,7.38,0,0,0,.61,1c.14.18.26.26.37.26s.37-.21.36-.63-.05-1.65-.13-3.59-.14-4.33-.16-7.16c0-2.1,0-3.71-.06-4.82s-.05-2-.07-2.63,0-1.15-.07-1.55,0-.94,0-1.6a2.57,2.57,0,0,1,.62-1.87,2.8,2.8,0,0,1,2.09-.68h1.42a3,3,0,0,1,2,.57,2.44,2.44,0,0,1,.73,2l.22,27.93a5.28,5.28,0,0,1-1,3.54c-.69.83-2,1.25-3.92,1.27a5.13,5.13,0,0,1-3.58-1.15,12.68,12.68,0,0,1-2.44-3.05q-.43-.68-1.43-2.34l-2.23-3.71-2.48-4.13q-1.25-2.09-2.1-3.6-1.23-2.15-1.89-3.45t-1-2a8.48,8.48,0,0,0-.51-.94.44.44,0,0,0-.36-.23c-.18,0-.26.18-.26.53s0,1.47.1,3.25.11,4,.14,6.77c0,.28,0,.95,0,2s0,2.2.05,3.46,0,2.48.06,3.67,0,2.06,0,2.62a2.1,2.1,0,0,1-.88,1.9,4,4,0,0,1-2.2.59Z"/></svg>