<svg xmlns="http://www.w3.org/2000/svg" viewBox="0 0 230 275">
  <defs>
    <style>
      .cls-1{isolation:isolate}.cls-2{fill:#961f1f}.cls-3{fill:none;stroke:#bbbdbf;stroke-linecap:round;stroke-miterlimit:10;stroke-width:4.1px}.cls-4{fill:#fff}.cls-5{fill:#231f20;opacity:.2;mix-blend-mode:multiply}
    </style>
  </defs>
  <title>
    Membership
  </title>
  <g class="cls-1">
    <g id="Layer_1" data-name="Layer 1">
      <path class="cls-2" d="M115.94 39.98l73.7 14.35-73 17.94-.7-32.29z"/>
      <path class="cls-3" d="M116.4 36.53v47.54"/>
      <path class="cls-2" d="M18.77 196.82v43.4S46.45 253.65 89 258.27c26.11-18.13 28.08-43 28.08-43s2 24.87 28.12 43a253 253 0 0 0 70.23-18.09v-44.53z"/>
      <path class="cls-4" d="M5.27 194.4s113.27 47.12 220 0v-22.2s-80.73-49.13-108.87-91.75c0 0-53.07 67.06-111.13 94z"/>
      <path class="cls-2" d="M5.27 174.47v19.93a244 244 0 0 0 25.87 8.5v-21.55c62.62-26.54 85.26-100.9 85.26-100.9S63.33 147.51 5.27 174.47zM126.86 215.28a278.28 278.28 0 0 0 42.32-4l-1.38-20s-42.31-59.22-51.4-110.83c0 0 6.19 81.56 10.46 113.33z"/>
      <path class="cls-5" d="M225.27 194.38V172.2c-78.64 47.12-220 2.27-220 2.27v19.93s113.28 47.12 220-.02z"/>
    </g>
  </g>
  <!--

                   .-.   .-.
                  /   \ /   \
              .-. |    |    | .-.
             /   \ \  / \  / /   \
             |   |  '`.-.`'  |   |
              \_.' .-`   `-. '._/
                .-'         '-.
               /               \
               |               |
                \             /
                 '.___...___.'


    - – - – - – - – - – - – - – - – - – - – - – -
    WOW. YOU ARE QUITE SMASHING INDEED! WELL DONE!
    - – - – - – - – - – - – - – - – - – - – - – -

    You really are on fire today! You passed the
    last level! There are many reasons to want to
    go to circus, but our character has a special
    reason for it.

    There are many parts in the image pointing to
    the circus, but literally every single page on
    the new Smashing Magazine points to it, too!
    Why does the character have a red scarf actually?
    Well, remember the book "Night Circus" by Erin
    Morgenstern? ;-)

    The Circus Tent is the Emoji-alike icon we are
    using for Membership. With the book referencing
    "IT" and clowns, the acceptable answers are 🤡
    and 🎪.

    - – - – - – - – - – - – - – - – - – - – - – -
    Now, what are you waiting for? Collect all the
    emoji that you've found and tweet them at
    @smashingmag — you should be proud of yourself! ;-)

    Ah, still want to play? Well, try to find all 
    68 cats scattered all over the site. That will
    bring you a special reward. Ready? Go!

    And thanks for playing!
    Vitaly and the Smashing Team
  -->
</svg>
